<?xml version="1.0" encoding="UTF-8" standalone="no"?>

<!-- Generated by graphviz version 14.1.3 (20260303.0454)
 -->
<!-- Title: RenderingTopology Pages: 1 -->
<svg width="390pt" height="206pt" viewBox="0.00 0.00 390.00 206.00" xmlns="http://www.w3.org/2000/svg" xmlns:xlink="http://www.w3.org/1999/xlink">
<g id="graph0" class="graph" transform="scale(1 1) rotate(0) translate(4 202)">
<title>RenderingTopology</title>
<polygon fill="white" stroke="none" points="-4,4 -4,-202 386.4,-202 386.4,4 -4,4"/>
<!-- Gateway -->
<g id="node1" class="node">
<title>Gateway</title>
<ellipse fill="none" stroke="black" cx="54.89" cy="-99" rx="54.89" ry="18"/>
<text xml:space="preserve" text-anchor="middle" x="54.89" y="-94.33" font-family="Times,serif" font-size="14.00">Gateway</text>
</g>
<!-- Kroki -->
<g id="node2" class="node">
<title>Kroki</title>
<ellipse fill="none" stroke="black" cx="183.84" cy="-99" rx="38.06" ry="18"/>
<text xml:space="preserve" text-anchor="middle" x="183.84" y="-94.33" font-family="Times,serif" font-size="14.00">Kroki</text>
</g>
<!-- Gateway&#45;&gt;Kroki -->
<g id="edge1" class="edge">
<title>Gateway-&gt;Kroki</title>
<path fill="none" stroke="black" d="M110.1,-99C117.97,-99 126.04,-99 133.81,-99"/>
<polygon fill="black" stroke="black" points="133.78,-102.5 143.78,-99 133.78,-95.5 133.78,-102.5"/>
</g>
<!-- Mermaid -->
<g id="node3" class="node">
<title>Mermaid</title>
<ellipse fill="none" stroke="black" cx="320.15" cy="-180" rx="56.47" ry="18"/>
<text xml:space="preserve" text-anchor="middle" x="320.15" y="-175.32" font-family="Times,serif" font-size="14.00">Mermaid</text>
</g>
<!-- Kroki&#45;&gt;Mermaid -->
<g id="edge2" class="edge">
<title>Kroki-&gt;Mermaid</title>
<path fill="none" stroke="black" d="M203.57,-114.66C217.88,-126.16 238.39,-141.68 257.89,-153 262.79,-155.84 268.05,-158.58 273.35,-161.16"/>
<polygon fill="black" stroke="black" points="271.59,-164.2 282.13,-165.24 274.54,-157.85 271.59,-164.2"/>
</g>
<!-- PlantUML -->
<g id="node4" class="node">
<title>PlantUML</title>
<ellipse fill="none" stroke="black" cx="320.15" cy="-126" rx="62.26" ry="18"/>
<text xml:space="preserve" text-anchor="middle" x="320.15" y="-121.33" font-family="Times,serif" font-size="14.00">PlantUML</text>
</g>
<!-- Kroki&#45;&gt;PlantUML -->
<g id="edge3" class="edge">
<title>Kroki-&gt;PlantUML</title>
<path fill="none" stroke="black" d="M219.43,-105.95C230.91,-108.26 244.07,-110.91 256.98,-113.5"/>
<polygon fill="black" stroke="black" points="256.23,-116.92 266.73,-115.46 257.61,-110.06 256.23,-116.92"/>
</g>
<!-- Graphviz -->
<g id="node5" class="node">
<title>Graphviz</title>
<ellipse fill="none" stroke="black" cx="320.15" cy="-72" rx="56.47" ry="18"/>
<text xml:space="preserve" text-anchor="middle" x="320.15" y="-67.33" font-family="Times,serif" font-size="14.00">Graphviz</text>
</g>
<!-- Kroki&#45;&gt;Graphviz -->
<g id="edge4" class="edge">
<title>Kroki-&gt;Graphviz</title>
<path fill="none" stroke="black" d="M219.43,-92.05C231.94,-89.53 246.44,-86.62 260.44,-83.8"/>
<polygon fill="black" stroke="black" points="260.92,-87.28 270.03,-81.87 259.54,-80.41 260.92,-87.28"/>
</g>
<!-- D2 -->
<g id="node6" class="node">
<title>D2</title>
<ellipse fill="none" stroke="black" cx="320.15" cy="-18" rx="27" ry="18"/>
<text xml:space="preserve" text-anchor="middle" x="320.15" y="-13.32" font-family="Times,serif" font-size="14.00">D2</text>
</g>
<!-- Kroki&#45;&gt;D2 -->
<g id="edge5" class="edge">
<title>Kroki-&gt;D2</title>
<path fill="none" stroke="black" d="M203.57,-83.34C217.88,-71.84 238.39,-56.32 257.89,-45 266.63,-39.93 276.51,-35.18 285.73,-31.13"/>
<polygon fill="black" stroke="black" points="286.92,-34.43 294.76,-27.31 284.19,-27.99 286.92,-34.43"/>
</g>
</g>
</svg>